<svg viewBox="0 0 420 405" xmlns="http://www.w3.org/2000/svg" fill="none" stroke="currentColor" stroke-width="2"><path d="M7 332L9 330.9L11.5 329.4L14.5 327.6L17.9 325.7L21.7 323.6L25.8 321.6L30.3 319.7L35 318L40.2 316.4L46 314.8L52.1 313.2L58.6 311.7L65.3 310.3L72 309L78.6 307.9L85 307L91.3 306.3L97.5 305.8L103.8 305.5L110 305.3L116.3 305.3L122.5 305.4L128.8 305.6L135 306L141.3 306.5L147.5 307.2L153.8 308L160 308.9L166.3 310L172.5 311.2L178.8 312.6L185 314L191.3 315.6L197.5 317.5L203.8 319.6L210 321.8L216.3 323.9L222.5 326.1L228.8 328.1L235 330L241.3 331.8L247.5 333.6L253.8 335.4L260 337.1L266.3 338.7L272.5 340.1L278.8 341.2L285 342L291.3 342.5L297.6 342.7L304 342.7L310.3 342.5L316.6 342.1L322.9 341.5L329 340.8L335 340L341 338.9L347 337.5L353 335.9L358.9 334.1L364.7 332.4L370.1 330.7L375.3 329.2L380 328L384.4 327L388.5 326.1L392.4 325.2L395.9 324.5L399.2 324L402.1 323.7L404.8 323.7L407 324L408.9 324.7L410.4 325.8L411.6 327.2L412.5 328.9L413.1 330.7L413.3 332.5L413.3 334.3L413 336L412.5 337.6L411.7 339.3L410.7 341L409.4 342.7L407.7 344.4L405.6 346.2L403 348.1L400 350L396.3 352L392 354.1L387.2 356.2L382 358.4L376.6 360.6L371 362.8L365.4 365L360 367L354.6 369L349.2 371L343.7 372.9L338.1 374.9L332.5 376.8L326.7 378.6L320.9 380.3L315 382L309 383.6L302.9 385.2L296.6 386.7L290.3 388.1L284 389.5L277.6 390.8L271.3 391.9L265 393L258.8 394L252.5 394.9L246.3 395.7L240 396.4L233.8 397L227.5 397.5L221.3 397.8L215 398L208.8 398.1L202.5 398L196.3 397.8L190 397.4L183.8 397L177.5 396.4L171.3 395.8L165 395L158.8 394.1L152.5 393.1L146.3 392L140 390.8L133.8 389.4L127.5 388L121.3 386.5L115 385L108.7 383.4L102.3 381.6L95.8 379.7L89.4 377.8L83 375.8L76.8 373.8L70.8 371.9L65 370L59.4 368.2L53.7 366.4L48.2 364.6L42.9 362.8L37.8 361.1L33.1 359.3L28.8 357.6L25 356L21.8 354.4L19 352.9L16.6 351.4L14.6 349.9L12.9 348.4L11.5 347L10.2 345.5L9 344L8.1 342.4L7.5 340.7L7.1 339L7 337.3L7 335.6L7 334.2L7.1 332.9L7 332"/><path d="M17 344L20.7 343L25.6 341.6L31.4 339.9L37.9 338.1L44.7 336.3L51.7 334.6L58.6 333.1L65 332L71.2 331.2L77.4 330.6L83.6 330.1L89.9 329.8L96.2 329.6L102.5 329.6L108.7 329.7L115 330L121.3 330.5L127.5 331.1L133.8 331.9L140 332.8L146.3 333.9L152.5 335.1L158.8 336.5L165 338L171.3 339.7L177.5 341.8L183.8 344L190 346.4L196.3 348.7L202.5 351L208.8 353.1L215 355L221.3 356.7L227.5 358.3L233.8 359.8L240 361.3L246.3 362.5L252.5 363.6L258.8 364.4L265 365L271.3 365.3L277.5 365.4L283.8 365.3L290 365L296.3 364.5L302.5 363.8L308.8 363L315 362L321.3 360.8L327.7 359.2L334.2 357.4L340.6 355.5L347 353.5L353.2 351.5L359.2 349.7L365 348L370.8 346.4L376.6 344.8L382.5 343.2L388.1 341.6L393.4 340.2L398 338.9L402 337.8L405 337"/><path d="M184.9 190.2L184.3 188.9L184 187.5L184.1 186.1L184.4 184.8L185.1 183.5L186.1 182.5L187.2 181.7L188.5 181.2L189.9 181L191.3 181.2L192.7 181.6L193.9 182.4L194.8 183.4L197.2 187.2L200.4 192.4L203.7 197.5L206.9 202.7L210.1 207.8L213.3 213L216.5 218.1L219.7 223.2L222.9 228.4L226.2 233.5L229.4 238.7L232.6 243.8L235.8 249L239 254.1L242.2 259.2L245.4 264.4L248.7 269.5L251.9 274.7L255.1 279.8L255.7 281.1L256 282.5L255.9 283.9L255.6 285.2L254.9 286.5L253.9 287.5L252.8 288.3L251.5 288.8L250.1 289L248.7 288.8L247.3 288.4L246.1 287.6L245.2 286.6L242.8 282.8L239.6 277.6L236.3 272.5L233.1 267.3L229.9 262.2L226.7 257L223.5 251.9L220.3 246.8L217.1 241.6L213.8 236.5L210.6 231.3L207.4 226.2L204.2 221L201 215.9L197.8 210.8L194.6 205.6L191.3 200.5L188.1 195.3L184.9 190.2"/><path d="M283 249.7L281.4 250L279.7 249.9L278.2 249.4L276.7 248.6L275.6 247.4L274.7 246L274.2 244.5L274 242.8L274.2 241.2L274.8 239.7L275.8 238.3L277 237.2L278.5 236.5L282.9 235.1L288.7 233.4L294.6 231.7L300.4 229.9L306.3 228.2L312.1 226.4L316.5 225.2L318.2 225L319.8 225.2L321.3 225.8L322.7 226.8L323.8 228L324.5 229.5L324.9 231.1L325 232.7L324.6 234.3L323.9 235.8L322.8 237.1L321.5 238.1L320 238.7L314.2 240.4L308.3 242.2L302.5 243.9L296.6 245.7L290.8 247.4L284.9 249.1L283 249.7"/><path d="M237.1 183.5L236.5 182.3L236.1 180.9L236 179.5L236.3 178.1L236.9 176.9L237.8 175.8L238.9 174.9L240.2 174.3L241.5 174L242.9 174.1L244.3 174.5L245.5 175.2L246.6 176.1L249.2 179.7L252.8 184.6L256.3 189.5L259.9 194.4L263.4 199.3L267 204.2L270.5 209.1L274.1 214L277.6 218.9L281.2 223.8L284.7 228.7L287.1 232"/><path d="M297.7 246.7L301.3 251.6L304.8 256.5L308.4 261.4L311.9 266.3L315.5 271.2L318.1 274.9L318.7 276.2L319 277.5L318.9 278.9L318.5 280.3L317.8 281.5L316.9 282.6L315.7 283.3L314.4 283.8L313 284L311.6 283.8L310.3 283.3L309.1 282.6L308.1 281.5L304.6 276.6L301 271.7L297.5 266.8L293.9 261.9L290.4 257L286.8 252.1L285.7 250.5"/><path d="M276.2 237.4L272.6 232.5L269.1 227.6L265.5 222.7L262 217.8L258.4 212.9L254.9 208L251.3 203.1L247.8 198.2L244.2 193.3L240.7 188.4L237.1 183.5"/><path d="M216.8 218.5L217.9 218.1L219.1 218L220.2 218.2L221.3 218.6L222.3 219.2L223.1 220.1L223.6 221.1L223.9 222.3L224 223.4L223.7 224.6L223.2 225.7L223 226"/><path d="M214.4 237.6L210.7 242.5L207 247.5L203.3 252.4L199.6 257.4L195.9 262.4L192.2 267.3L190.5 269.6L189.6 270.3L188.5 270.8L187.3 271L186.2 270.9L185 270.6L184 270L183.2 269.2L182.5 268.2L182.1 267.1L182 265.9L182.2 264.8L182.6 263.7L184.2 261.4L187.9 256.4L191.6 251.4L195.3 246.5L199 241.5L202.7 236.6L206.4 231.6L207.6 229.9"/><path d="M53 310L55.4 308L58.6 305.4L62.3 302.2L66.5 298.8L71 295.1L75.7 291.5L80.4 288.1L85 285L89.6 282.2L94.3 279.5L99.2 276.8L104.2 274.3L109.3 271.8L114.5 269.4L119.7 267.1L125 265L130.4 263L135.9 261.1L141.5 259.3L147.2 257.7L152.9 256.1L158.6 254.7L164.3 253.3L170 252L175.6 250.8L181.1 249.5L186.7 248.4L192.2 247.4L194 247.1"/><path d="M209.1 245.3L215 245L219 244.9"/><path d="M235.5 245.5L241.8 246L248.1 246.8L254.5 247.8L260.8 249L267.1 250.5L273.3 252.4L279.6 254.6L285.8 257L292.1 259.6L298.3 262.4L304.6 265.2L310.8 268.1L317.1 270.9L323.5 273.9L329.9 276.9L336.4 280L342.9 283.1L349.2 286.3L355.4 289.6L361.3 292.8L366.8 296.1L372.5 299.7L378.1 303.5L383.6 307.5L388.8 311.3L393.6 314.9L397.8 318.1L401.2 320.7L403 322"/><path d="M139.8 82.4L139.3 87.3L138.7 93.3L138 100.1L137.3 107.3L136.5 114.6L135.8 121.7L135.2 128.1L134.6 133.7L134 139L133.5 144.1L132.9 149L132.4 153.8L131.9 158.6L131.5 163.4L131.1 168.3L130.8 173.4L130.5 178.5L130.3 183.6L130.1 188.8L130 193.9L129.9 198.9L129.9 203.8L130 208.5L130.1 213L130.5 217.4L131 221.8L131.6 226L132.2 230.1L132.7 233.9L133 237.6L133 240.9L132.8 244L132.2 247L131.4 249.7L130.5 252.2L129.5 254.5L128.6 256.5L127.8 258.2L127.1 259.6L131 259.7L137 259.3L143 258.8"/><path d="M176.9 250.1L175 247.4L173.1 244.5L171.2 241.4L169.5 238.2L168 235L166.7 231.7L165.6 228.3L164.5 224.6L163.5 220.9L162.6 217L161.7 213.1L160.8 209.1L160 205L159.2 200.9L158.5 196.7L157.8 192.5L157.1 188.1L156.5 183.7L156 179.2L155.5 174.6L155 170L154.6 165.3L154.2 160.5L153.9 155.6L153.6 150.7L153.3 145.7L153.1 140.5L153 135.3L153 130L153.1 124.2L153.3 117.8L153.5 111.2L153.9 104.5L154.2 98.1L154.5 92.4L154.8 87.6L154.9 86.2"/><path d="M143 72L139.6 63.8L135.8 56.4L131.6 49.9L126.9 44.2L121.8 39.4L116.3 35.4L110.4 32.3L104 30L97.2 28.5L90 27.9L82.4 28.2L74.4 29.2L65.9 31.2L64.9 33.3L70.5 37L76.2 40.5L82 44L87.8 47.4L93.7 50.6L99.7 53.7L105.7 56.7L111.7 59.5L117.9 62.3L124.1 64.9L130.3 67.4L136.6 69.7L143 72"/><path d="M143 72L136.7 71.1L130.6 70.4L119 69.8L108.3 70.5L98.3 72.2L89.2 75.1L80.9 79.1L73.4 84.2L66.7 90.5L60.9 97.9L55.9 106.4L51.6 116.1L48.3 126.9L46.4 134.7L45.3 140.9L47.5 141.3L55 136.2L62.5 131L69.9 125.9L77.4 120.6L84.8 115.4L92.1 110.1L99.5 104.8L106.8 99.4L114.1 94L121.4 88.5L128.6 83.1L135.8 77.5L143 72"/><path d="M143 72L134.6 76.8L127 82.1L120.2 87.7L114.3 93.7L109.1 100L104.8 106.8L101.3 113.9L98.6 121.5L96.7 129.4L95.7 137.6L95.4 146.3L96 155.3L97.4 164.8L99.5 165.8L103.8 159L108 152.2L112 145.3L115.8 138.3L119.5 131.2L123 124.1L126.3 116.9L129.5 109.6L132.5 102.2L135.4 94.8L138.1 87.3L140.6 79.7L143 72"/><path d="M143 72L147.5 67.7L152 63.4L156.3 58.9L160.6 54.4L164.7 49.8L168.7 45.1L172.6 40.3L176.4 35.4L180.1 30.5L183.7 25.4L187.2 20.3L190.6 15.1L193.9 9.8L192.3 8.4L184.5 10.1L177.4 12.3L170.9 15L165.2 18.3L160 22.1L155.6 26.4L151.8 31.3L148.7 36.8L146.2 42.7L144.4 49.2L143.3 56.3L142.8 63.9L143 72"/><path d="M143 72L151 73.9L159 75.7L167.1 77.4L175.1 79.1L183.2 80.6L191.3 82.1L199.4 83.4L207.5 84.7L215.6 85.9L223.8 87L231.9 88L240.1 88.9L248.3 89.7L248.7 86.9L241.9 78.3L234.8 70.9L227.5 64.8L219.9 59.9L212.2 56.3L204.3 53.9L196.2 52.8L187.8 52.9L179.3 54.2L170.5 56.8L161.5 60.6L152.4 65.7L143 72"/><path d="M143 72L148.4 78.2L154 84.2L159.6 90.2L165.3 96L171.1 101.8L177 107.5L183 113L189 118.5L195.2 123.9L201.5 129.2L207.8 134.3L214.3 139.4L220.8 144.4L222.7 142.4L221.1 132L218.8 122.5L215.7 113.7L211.9 105.8L207.3 98.8L201.9 92.5L195.8 87.1L188.9 82.5L181.3 78.8L172.8 75.8L163.7 73.7L153.7 72.5L143 72"/></svg>
